<svg width="88" height="88" viewBox="0 0 88 88" fill="none" xmlns="http://www.w3.org/2000/svg">
<g clip-path="url(#clip0_469_45388)">
<path d="M6.25098 9.9598C6.25098 4.8986 10.3488 0.792982 15.41 0.783375L65.7887 0.687744L75.2919 11.0002L86.0795 22.5159L86.016 78.8341C86.0103 83.8981 81.9035 88.0002 76.8395 88.0002H15.4274C10.3594 88.0002 6.25098 83.8918 6.25098 78.8238V9.9598Z" fill="#0A524B"/>
<path d="M6.25195 9.84928C6.25195 4.78667 10.356 0.682617 15.4186 0.682617H65.7913L86.0438 22.5121H6.25195V9.84928Z" fill="white" fill-opacity="0.8"/>
<rect x="6.25195" y="22.512" width="79.8293" height="21.8295" fill="white" fill-opacity="0.7"/>
<rect x="6.25195" y="44.342" width="79.8293" height="21.8295" fill="white" fill-opacity="0.5"/>
<path d="M6.25195 66.1713H86.0812V78.8341C86.0812 83.8967 81.9772 88.0007 76.9146 88.0007H15.4186C10.356 88.0007 6.25195 83.8967 6.25195 78.8341V66.1713Z" fill="white" fill-opacity="0.4"/>
<rect x="2.44434" y="24.4446" width="68.4444" height="41.5556" rx="2.01307" fill="white"/>
<path d="M19.566 43.3081H15.8229C15.7162 42.6942 15.5193 42.1505 15.2324 41.6767C14.9455 41.1964 14.5886 40.7894 14.1616 40.4557C13.7345 40.1221 13.2475 39.8719 12.7004 39.7051C12.1599 39.5317 11.5761 39.4449 10.9489 39.4449C9.83469 39.4449 8.84722 39.7251 7.98652 40.2856C7.12582 40.8394 6.45193 41.6534 5.96487 42.7276C5.4778 43.7951 5.23427 45.0995 5.23427 46.6408C5.23427 48.2087 5.4778 49.5298 5.96487 50.604C6.45861 51.6716 7.13249 52.4789 7.98652 53.026C8.84722 53.5664 9.83136 53.8367 10.9389 53.8367C11.5528 53.8367 12.1266 53.7566 12.6603 53.5965C13.2008 53.4297 13.6845 53.1861 14.1115 52.8659C14.5452 52.5456 14.9088 52.152 15.2024 51.6849C15.5027 51.2179 15.7095 50.6841 15.8229 50.0836L19.566 50.1036C19.4259 51.0777 19.1223 51.9918 18.6552 52.8459C18.1949 53.6999 17.591 54.4538 16.8437 55.1077C16.0965 55.7549 15.2224 56.262 14.2216 56.6289C13.2208 56.9892 12.1099 57.1694 10.8889 57.1694C9.08742 57.1694 7.47944 56.7524 6.06495 55.9184C4.65046 55.0844 3.53622 53.88 2.72222 52.3054C1.90822 50.7308 1.50123 48.8426 1.50123 46.6408C1.50123 44.4323 1.91156 42.5441 2.73223 40.9762C3.5529 39.4016 4.67048 38.1972 6.08497 37.3632C7.49945 36.5292 9.10076 36.1122 10.8889 36.1122C12.0298 36.1122 13.0907 36.2723 14.0715 36.5926C15.0523 36.9129 15.9263 37.3832 16.6936 38.0037C17.4609 38.6176 18.0914 39.3715 18.5852 40.2656C19.0856 41.153 19.4125 42.1671 19.566 43.3081ZM36.36 42.027C36.2666 41.153 35.8729 40.4724 35.179 39.9854C34.4918 39.4983 33.5977 39.2548 32.4968 39.2548C31.7229 39.2548 31.059 39.3715 30.5052 39.6051C29.9514 39.8386 29.5277 40.1555 29.2342 40.5558C28.9406 40.9562 28.7905 41.4132 28.7838 41.9269C28.7838 42.354 28.8805 42.7243 29.074 43.0379C29.2742 43.3514 29.5444 43.6183 29.8847 43.8385C30.225 44.052 30.6019 44.2322 31.0156 44.3789C31.4293 44.5257 31.8463 44.6492 32.2666 44.7493L34.1882 45.2296C34.9622 45.4098 35.7061 45.6533 36.42 45.9602C37.1406 46.2672 37.7845 46.6541 38.3516 47.1212C38.9254 47.5882 39.3791 48.152 39.7127 48.8126C40.0463 49.4731 40.2131 50.2471 40.2131 51.1345C40.2131 52.3354 39.9062 53.393 39.2924 54.3071C38.6785 55.2145 37.7911 55.925 36.6302 56.4388C35.4759 56.9459 34.0781 57.1994 32.4368 57.1994C30.8421 57.1994 29.4577 56.9525 28.2834 56.4588C27.1158 55.9651 26.2017 55.2445 25.5411 54.297C24.8873 53.3496 24.5337 52.1953 24.4803 50.8342H28.1333C28.1866 51.5481 28.4068 52.142 28.7938 52.6157C29.1808 53.0894 29.6845 53.443 30.305 53.6765C30.9322 53.9101 31.6328 54.0268 32.4068 54.0268C33.2141 54.0268 33.9213 53.9067 34.5285 53.6665C35.1423 53.4197 35.6227 53.0794 35.9697 52.6457C36.3166 52.2053 36.4934 51.6916 36.5001 51.1044C36.4934 50.5707 36.3366 50.1303 36.0297 49.7834C35.7228 49.4297 35.2924 49.1362 34.7387 48.9026C34.1915 48.6624 33.551 48.4489 32.8171 48.2621L30.4852 47.6616C28.7971 47.2279 27.4627 46.5707 26.4819 45.69C25.5078 44.8026 25.0207 43.625 25.0207 42.1571C25.0207 40.9495 25.3477 39.892 26.0015 38.9845C26.6621 38.0771 27.5595 37.3732 28.6937 36.8728C29.828 36.3657 31.1124 36.1122 32.5469 36.1122C34.0014 36.1122 35.2758 36.3657 36.37 36.8728C37.4709 37.3732 38.3349 38.0705 38.9621 38.9645C39.5893 39.8519 39.9129 40.8728 39.9329 42.027H36.36ZM48.5202 36.3924L53.8546 52.5256H54.0647L59.3891 36.3924H63.4724L56.2465 56.8892H51.6628L44.4469 36.3924H48.5202Z" fill="#0A524B"/>
</g>
<defs>
<clipPath id="clip0_469_45388">
<rect width="88" height="88" rx="9.77778" fill="white"/>
</clipPath>
</defs>
</svg>
