<svg width="509" height="214" viewBox="0 0 509 214" fill="none" xmlns="http://www.w3.org/2000/svg">
<path d="M0 8C0 3.58173 3.58172 0 8 0H501C505.418 0 509 3.58172 509 8V214H0V8Z" fill="#F9F9F9"/>
<rect x="160.367" y="32.7363" width="217.437" height="154.811" rx="7.53697" fill="#E9EAEE"/>
<path d="M160.368 85.7301V41.2114C160.325 36.5749 164.076 32.7811 168.748 32.7363H369.423C374.095 32.7811 377.847 36.5749 377.804 41.2114V179.072C377.847 183.709 374.095 187.502 369.423 187.547H168.748C164.076 187.502 160.325 183.709 160.368 179.072V122.953" stroke="black" stroke-width="0.922112"/>
<path d="M369.423 32.7363H168.748C164.076 32.7808 160.325 36.5502 160.368 41.1569V46.3961H377.804V41.1569C377.847 36.5502 374.095 32.7808 369.423 32.7363V32.7363Z" fill="#465173" stroke="black" stroke-width="0.922112"/>
<path d="M199.826 114.329L199.699 113.976L200.02 113.78C206.808 109.644 211.519 101.573 211.519 92.3921V79.6118C211.519 66.0476 201.395 55.068 189.049 55.068H150.932C138.585 55.068 128.461 66.0476 128.461 79.6118V92.281C128.461 105.845 138.585 116.825 150.932 116.825H189.049C189.867 116.825 190.551 116.824 191.331 116.718L191.521 116.692L191.674 116.809L201.356 124.255L201.356 124.255L201.367 124.264C201.59 124.446 201.803 124.501 201.987 124.49C202.178 124.479 202.372 124.397 202.541 124.247C202.883 123.945 203.07 123.416 202.883 122.885C202.883 122.885 202.883 122.885 202.883 122.885L199.826 114.329Z" fill="#BABECB" stroke="black" stroke-width="0.922112"/>
<path d="M186.603 88.7254C185.421 88.7254 184.463 87.6805 184.463 86.3916C184.463 85.1027 185.421 84.0578 186.603 84.0578C187.785 84.0578 188.744 85.1027 188.744 86.3916C188.744 87.6805 187.785 88.7254 186.603 88.7254Z" fill="white"/>
<path d="M169.989 88.7256C168.807 88.7256 167.849 87.6807 167.849 86.3918C167.849 85.1029 168.807 84.058 169.989 84.058C171.171 84.058 172.129 85.1029 172.129 86.3918C172.129 87.6807 171.171 88.7256 169.989 88.7256Z" fill="white"/>
<path d="M153.377 88.7256C152.195 88.7256 151.236 87.6807 151.236 86.3918C151.236 85.1029 152.195 84.058 153.377 84.058C154.559 84.058 155.517 85.1029 155.517 86.3918C155.517 87.6807 154.559 88.7256 153.377 88.7256Z" fill="white"/>
<mask id="mask0_732_29448" style="mask-type:alpha" maskUnits="userSpaceOnUse" x="169" y="21" width="213" height="187">
<path d="M382 23.5801C382 22.1552 380.845 21 379.42 21H172.494C171.069 21 169.914 22.1552 169.914 23.5801V185.446C169.914 186.871 171.069 188.026 172.494 188.026H184.147C185.115 188.026 186.001 188.568 186.443 189.428L194.948 205.998C195.776 207.612 197.966 207.89 199.171 206.535L214.869 188.891C215.359 188.341 216.06 188.026 216.797 188.026H379.42C380.845 188.026 382 186.871 382 185.446V166.704V23.5801Z" fill="#D9D9D9"/>
</mask>
<g mask="url(#mask0_732_29448)">
<path d="M294.818 191.297C294.731 191.24 294.632 191.204 294.529 191.194L256.513 187.377C256.165 187.342 255.854 187.596 255.819 187.944C254.312 202.892 255.401 224.029 256.86 241.395C257.59 250.085 258.414 257.844 259.056 263.43C259.377 266.223 259.652 268.474 259.847 270.026C259.944 270.802 260.022 271.404 260.075 271.812C260.101 272.016 260.122 272.171 260.136 272.276L260.151 272.394L260.155 272.424L260.156 272.426L260.156 272.432L260.161 272.476L260.179 272.652L260.251 273.339C260.314 273.94 260.406 274.823 260.522 275.949C260.755 278.199 261.084 281.419 261.473 285.294C262.249 293.045 263.259 303.418 264.197 313.91C265.135 324.404 265.999 335.01 266.483 343.23C266.725 347.341 266.872 350.846 266.885 353.437C266.892 354.735 266.865 355.791 266.803 356.576C266.771 356.969 266.732 357.281 266.686 357.516C266.663 357.633 266.64 357.724 266.619 357.79C266.608 357.823 266.599 357.848 266.591 357.865C266.584 357.883 266.58 357.89 266.58 357.889C266.454 358.095 266.456 358.356 266.587 358.56C266.717 358.764 266.952 358.876 267.193 358.849L277.079 357.718L281.298 358.832C281.34 358.843 281.384 358.85 281.427 358.852L305.639 360.118C305.829 360.127 306.013 360.052 306.141 359.911C306.268 359.77 306.326 359.58 306.299 359.392C297.394 299.29 300.069 267.79 301.984 245.225C302.475 239.451 302.915 234.262 303.099 229.329C309.532 207.754 300.391 195.018 294.818 191.297Z" fill="#BABECB" stroke="black" stroke-width="1.26721" stroke-linecap="round" stroke-linejoin="round"/>
<mask id="mask1_732_29448" style="mask-type:alpha" maskUnits="userSpaceOnUse" x="256" y="188" width="51" height="172">
<path d="M302.802 229.225C309.205 207.853 300.135 195.387 294.799 191.825L256.783 188.008C253.782 217.776 260.451 272.351 260.451 272.351C260.451 272.351 269.121 354.404 266.787 358.22L277.458 357.075L266.655 239.782H267.322L270.99 269.157L281.793 358.22L306.005 359.485C294.799 283.844 301.913 253.396 302.802 229.225Z" fill="#ACC7FA"/>
</mask>
<g mask="url(#mask1_732_29448)">
<path d="M276.993 185.34C282.995 219.355 276.993 257.705 289.998 343.074" stroke="white" stroke-width="2.6678"/>
<path d="M260.986 185.34C254.65 223.357 267.322 255.037 271.991 343.074" stroke="white" stroke-width="2.00085"/>
<path d="M287.664 185.34C304.004 215.02 284.663 242.365 300.669 343.074" stroke="white" stroke-width="2.6678"/>
</g>
<path d="M280.126 203.273C281.46 209.38 286.529 220.447 296.133 215.867" stroke="black" stroke-width="1.26721" stroke-linecap="round" stroke-linejoin="round"/>
<path d="M277.125 356.693L270.455 268.915L280.793 357.456L277.125 356.693Z" fill="black"/>
<path d="M267.121 201.747C264.453 234.186 270.455 268.915 270.455 268.915M270.455 268.915L277.125 356.693L280.793 357.456L270.455 268.915Z" stroke="black" stroke-width="1.26721" stroke-linecap="round" stroke-linejoin="round"/>
<path d="M275.567 107.297C254.224 109.298 246.443 103.851 240.552 101.628C238.684 110.165 232.882 119.858 230.214 123.637C238.484 126.572 256.336 125.527 264.228 124.638C250.356 147.848 245.998 175.659 245.554 190.332C255.892 186.664 274.566 188.665 281.569 192C287.172 194.668 300.355 192.667 306.246 191.333C299.844 187.865 297.909 165.099 297.909 151.316C301.911 148.981 311.915 147.314 318.585 145.647C314.316 129.907 298.576 110.854 291.24 103.295L275.567 107.297Z" fill="#465173"/>
<path d="M297.909 151.316C301.911 148.981 311.915 147.314 318.585 145.647C314.316 129.907 298.576 110.854 291.24 103.295L275.567 107.297C254.224 109.298 246.443 103.851 240.552 101.628C238.684 110.165 232.882 119.858 230.214 123.637C238.484 126.572 256.336 125.527 264.228 124.638M297.909 151.316C297.909 165.099 299.844 187.865 306.246 191.333C300.355 192.667 287.172 194.668 281.569 192C274.566 188.665 255.892 186.664 245.554 190.332C245.998 175.659 250.356 147.848 264.228 124.638M297.909 151.316L291.24 154.651C291.24 142.322 291.24 131.317 289.906 121.636M264.228 124.638C265.302 122.77 267.769 120.09 268.989 118.645" stroke="black" stroke-width="0.922112" stroke-linecap="round" stroke-linejoin="round"/>
<path d="M249.889 188.998C246.421 178.861 251.112 159.764 253.224 149.315C249.756 159.719 245.999 179.55 245.221 190.332L249.889 188.998Z" fill="black" stroke="black" stroke-width="1.26721" stroke-linecap="round" stroke-linejoin="round"/>
<path d="M229.547 123.304C228.213 123.037 228.048 118.524 228.604 115.967C229.938 116.301 232.272 116.634 233.94 116.968C232.939 119.302 230.881 123.571 229.547 123.304Z" fill="black" stroke="black" stroke-width="1.26721" stroke-linecap="round" stroke-linejoin="round"/>
<path d="M318.921 146.038C311.933 150.376 300.913 159.978 291.576 155.333C300.235 151.925 317.827 145.294 318.921 146.038Z" fill="black" stroke="black" stroke-width="1.26721" stroke-linecap="round" stroke-linejoin="round"/>
<path d="M222.543 90.289C223.344 94.8243 234.215 99.5152 240.218 101.627C240.218 108.83 235.549 114.188 233.215 116.3C229.213 116.3 211.539 108.297 209.872 98.9594C208.933 93.707 210.093 61.8324 211.872 47.6041C210.202 46.3054 207.63 34.6084 215.967 36.9427C215.967 29.9398 216.967 24.9376 218.634 26.2714C219.757 27.1696 220.478 33.2819 220.302 37.0423C221.082 37.5835 222.17 38.5227 223.637 39.944C225.702 41.9449 223.637 42.6118 222.543 45.9367C220.635 48.6144 221.543 84.6199 222.543 90.289Z" fill="#F5B896"/>
<path d="M240.218 101.627C234.215 99.5152 223.344 94.8243 222.543 90.289C221.543 84.62 220.635 48.6144 222.543 45.9367C223.637 42.6118 225.702 41.9449 223.637 39.944C217.786 34.2749 217.967 36.2758 219.635 40.611C218.773 39.2568 217.634 35.2754 220.302 37.0423C220.478 33.2819 219.757 27.1696 218.634 26.2714C216.967 24.9376 215.967 29.9398 215.967 36.9427C207.63 34.6084 210.202 46.3054 211.872 47.6041C210.093 61.8324 208.933 93.707 209.872 98.9594C211.539 108.297 229.213 116.3 233.215 116.3C235.549 114.188 240.218 108.83 240.218 101.627Z" stroke="black" stroke-width="0.922112" stroke-linejoin="round"/>
<path d="M269.595 171.143C278.517 159.709 258.529 130.315 247.419 117.048C245.426 114.612 237.503 119.406 235.299 119.93C233.096 120.454 227.483 118.879 223.626 119.796C219.77 120.713 221.789 124.307 213.657 126.823C207.151 128.835 210.332 133.24 212.736 135.19C241.753 153.434 242.787 168.74 241.119 177.41L269.595 171.143Z" fill="#E74F4F" stroke="black" stroke-width="0.922112" stroke-linecap="round" stroke-linejoin="round"/>
<path d="M225.93 134.38L243.848 128.956" stroke="black" stroke-width="0.922112" stroke-linecap="round" stroke-linejoin="round"/>
<path d="M229.995 139.235L247.912 133.81" stroke="black" stroke-width="0.922112" stroke-linecap="round" stroke-linejoin="round"/>
<path d="M241.703 177.551C232.679 178.765 231.142 172.301 231.502 168.918L263.453 161.32C263.179 166.041 267.569 169.654 269.798 170.87L241.703 177.551Z" fill="#E74F4F" stroke="black" stroke-width="0.922112" stroke-linecap="round" stroke-linejoin="round"/>
<path d="M318.436 184.495C306.431 189.498 276.568 163.808 272.992 160.812C263.229 161.473 255.32 154.984 253.984 152.649C252.732 150.463 254.651 150.022 256.119 150.668C254.882 149.748 253.519 148.311 253.984 146.98C254.576 145.285 255.651 145.578 256.755 146.16C254.17 142.259 256.985 142.069 258.652 142.978C262.321 144.979 263.654 145.578 265.655 145.578C264.988 142.583 264.03 140.581 266.989 141.58C269.201 142.327 274.705 148.145 275.326 151.79C284.33 156.077 295.667 163.663 299.002 164.997C298.335 163.663 295 153.983 295 153.983C295 153.983 303.337 147.796 313.009 147.796C315.677 151.465 326.44 180.16 318.436 184.495Z" fill="#F5B896"/>
<path d="M299.002 164.997C295.667 163.663 284.33 156.077 275.326 151.79C274.705 148.145 269.201 142.327 266.989 141.58C264.03 140.581 264.988 142.583 265.655 145.578C263.654 145.578 262.321 144.979 258.652 142.978C256.985 142.069 254.17 142.259 256.755 146.16M299.002 164.997C298.335 163.663 295 153.983 295 153.983C295 153.983 303.337 147.796 313.009 147.796C315.677 151.465 326.44 180.16 318.436 184.496C306.431 189.498 276.568 163.808 272.992 160.812C263.229 161.473 255.32 154.984 253.984 152.649C252.456 149.981 255.651 149.912 256.985 151.247M299.002 164.997L309.34 170.333M256.755 146.16C255.651 145.578 254.576 145.285 253.984 146.98C253.404 148.64 255.67 150.467 256.985 151.247M256.755 146.16C258.986 148.246 262.829 149.745 265.655 149.913M256.985 151.247C258.3 152.027 262.209 153.983 264.322 153.983" stroke="black" stroke-width="0.922112" stroke-linecap="round" stroke-linejoin="round"/>
<path d="M216.766 40.786C216.364 41.9794 213.677 41.3676 211.871 40.6537C210.065 39.9398 209.931 39.0795 210.226 38.2007C210.522 37.3219 211.135 36.7573 212.941 37.4712C214.747 38.1851 217.167 39.5925 216.766 40.786Z" fill="#F5B896" stroke="black" stroke-width="1.26721" stroke-linecap="round" stroke-linejoin="round"/>
<path d="M216.23 43.6882C215.829 44.8817 213.141 44.2699 211.335 43.556C209.53 42.8421 209.395 41.9818 209.691 41.103C209.986 40.2241 210.6 39.6596 212.406 40.3735C214.212 41.0874 216.631 42.4948 216.23 43.6882Z" fill="#F5B896" stroke="black" stroke-width="1.26721" stroke-linecap="round" stroke-linejoin="round"/>
<path d="M256.182 86.7236V61.046C256.182 61.046 258.85 47.6992 275.19 47.3657C291.531 47.0322 293.198 60.3713 293.198 60.3713C293.198 66.7585 291.176 70.3453 288.672 72.2894C291.43 70.6305 295.607 69.3181 296.533 73.7181C297.6 78.7869 292.087 80.7211 289.196 81.0545C287.062 92.5261 289.196 100.952 290.53 103.731C287.863 109.066 278.525 108.177 274.19 107.066V98.7287C256.316 99.2623 256.182 92.7262 256.182 86.7236Z" fill="#F5B896"/>
<path d="M256.182 61.046V86.7236C256.182 92.7262 256.316 99.2623 274.19 98.7287V107.066C278.525 108.177 287.863 109.066 290.53 103.731C289.196 100.952 287.062 92.5261 289.196 81.0545C292.087 80.7211 297.6 78.7869 296.533 73.7181C295.466 68.6493 290.086 71.1614 287.529 73.0511C290.53 71.3496 293.198 67.7077 293.198 60.3713C293.198 60.3713 291.531 47.0322 275.19 47.3657C258.85 47.6992 256.182 61.046 256.182 61.046Z" stroke="black" stroke-width="0.922112" stroke-linejoin="round"/>
<path d="M274.524 98.7285C276.86 98.6222 280.698 97.9275 281.734 96.0044C281.777 95.9096 281.819 95.8172 281.86 95.7272C281.824 95.8223 281.782 95.9147 281.734 96.0044C280.114 99.5357 276.602 106.212 274.524 106.732V98.7285Z" fill="black"/>
<path d="M274.524 98.7285C276.969 98.6173 281.06 97.8614 281.86 95.7272C280.304 99.1731 276.658 106.198 274.524 106.732V98.7285Z" stroke="black" stroke-width="1.26721" stroke-linecap="round" stroke-linejoin="round"/>
<path d="M286.886 73.7102V62.7055C284.861 55.369 279.168 63.039 271.189 63.039C264.498 63.039 258.517 56.3695 255.873 63.039C251.514 59.3709 249.822 51.701 252.847 49.0331C255.873 46.3653 258.85 48.6996 259.184 49.0331C259.072 47.3657 259.85 43.6976 263.852 42.3637C267.854 41.0298 269.299 43.9198 269.521 45.365C270.077 44.1422 273.857 40.6963 277.525 41.3633C281.193 42.0302 281.193 45.1425 281.526 46.3653C282.408 45.6982 283.527 42.697 285.862 43.3639C288.196 44.0309 287.981 47.6992 288.196 48.3661C288.633 47.9215 290.645 46.0985 292.531 46.3653C294.889 46.6987 296.199 51.034 296.199 53.3682C297 61.3716 294.77 68.2634 293.555 70.7089C291.154 70.1753 288.108 72.4874 286.886 73.7102Z" fill="black" stroke="black" stroke-width="1.26721" stroke-linecap="round" stroke-linejoin="round"/>
<path d="M275.19 58.7036L276.524 56.7028" stroke="white" stroke-width="1.00043" stroke-linecap="round" stroke-linejoin="round"/>
<path d="M291.197 59.9708L292.999 58.3783" stroke="white" stroke-width="1.00043" stroke-linecap="round" stroke-linejoin="round"/>
<path d="M271.687 56.1298L270.691 53.9408" stroke="white" stroke-width="1.00043" stroke-linecap="round" stroke-linejoin="round"/>
<path d="M287.901 55.0722L287.499 52.7012" stroke="white" stroke-width="1.00043" stroke-linecap="round" stroke-linejoin="round"/>
<path d="M264.522 56.2079L265.586 54.0515" stroke="white" stroke-width="1.00043" stroke-linecap="round" stroke-linejoin="round"/>
<path d="M280.298 50.9766L281.879 49.1646" stroke="white" stroke-width="1.00043" stroke-linecap="round" stroke-linejoin="round"/>
<path d="M258.529 55.5127L257.418 53.3803" stroke="white" stroke-width="1.00043" stroke-linecap="round" stroke-linejoin="round"/>
<path d="M274.523 48.0325L274.154 46.4239" stroke="white" stroke-width="1.00043" stroke-linecap="round" stroke-linejoin="round"/>
<path d="M264.634 49.0446L264.105 46.6987" stroke="white" stroke-width="1.00043" stroke-linecap="round" stroke-linejoin="round"/>
<path d="M264.988 71.4825C263.32 70.8156 260.319 71.8826 260.319 74.8172" stroke="black" stroke-width="1.00043" stroke-linecap="round" stroke-linejoin="round"/>
<path d="M274.325 72.1496C275.325 71.8161 277.46 72.5498 277.993 74.1504" stroke="black" stroke-width="1.00043" stroke-linecap="round" stroke-linejoin="round"/>
<path d="M278.994 82.9627C278.994 85.6305 277.326 88.017 274.887 89.4112C271.152 91.5454 266.655 90.9661 264.215 89.0777" stroke="black" stroke-width="1.00043" stroke-linecap="round" stroke-linejoin="round"/>
<circle cx="274.325" cy="75.746" r="1.00043" fill="black"/>
<circle cx="263.654" cy="75.0719" r="1.00043" fill="black"/>
<path d="M271.517 79.0776C270.981 77.3158 269.117 76.3228 267.355 76.8596C265.594 77.3964 264.601 79.2598 265.137 81.0215C265.455 82.0652 266.239 82.839 267.191 83.185" stroke="black" stroke-width="1.00043" stroke-linecap="round" stroke-linejoin="round"/>
<path d="M278.631 108.235C285.834 108.768 290.303 105.678 290.636 102.566C289.302 101.232 291.637 100.565 292.304 102.567C293.526 106.234 299.973 107.901 292.303 112.57C284.633 117.239 284.634 117.683 279.631 118.906C276.697 118.639 281.299 111.569 278.631 108.235Z" fill="white" stroke="black" stroke-width="0.922112" stroke-linecap="round" stroke-linejoin="round"/>
<path d="M272.962 116.238C274.296 112.57 276.519 109.68 278.298 107.901C273.762 107.901 274.852 106.345 274.963 104.233C272.962 104.233 271.161 106.634 270.628 108.235C270.094 109.835 268.293 111.569 266.626 111.569C267.426 112.637 270.183 114.348 272.962 116.238Z" fill="white" stroke="black" stroke-width="0.922112" stroke-linecap="round" stroke-linejoin="round"/>
<path d="M278.298 108.902C275.296 113.126 271.295 125.776 269.961 130.578" stroke="black" stroke-width="0.922112" stroke-linecap="round" stroke-linejoin="round"/>
</g>
</svg>
