<svg width="142" height="129" viewBox="0 0 142 129" fill="none" xmlns="http://www.w3.org/2000/svg">
<circle cx="65.0405" cy="64.6023" r="64.3306" fill="#E9EAEE"/>
<path d="M71.1632 49.3934L57.4905 36.3752L76.9569 40.697L80.3999 24.026L86.7297 38.7286L91.4275 31.9229" stroke="black" stroke-width="0.491483" stroke-linecap="round" stroke-linejoin="round"/>
<path d="M58.4253 51.6427L68.7444 54.5723" stroke="black" stroke-width="0.491483" stroke-linecap="round" stroke-linejoin="round"/>
<path d="M76.8986 73.0134C77.439 68.9946 79.5221 54.1315 80.4618 47.5625C98.1292 55.8695 121.231 53.706 130.737 51.783C130.231 59.0379 128.916 67.9817 128.306 71.5482C127.544 76.0063 124.407 87.7909 120.343 92.2351C116.28 96.6792 99.8482 101.372 87.6909 94.1554C76.5595 87.5475 76.2231 78.037 76.8986 73.0134Z" fill="#FFDDCA" stroke="black" stroke-width="0.491483" stroke-linejoin="round"/>
<path d="M114.09 65.3328C112.309 66.5887 113.434 69.1287 114.219 70.2417C115.109 70.1597 117.113 69.2927 118.05 67.7697C118.8 66.5512 118.292 64.419 117.945 63.5051C117.402 63.5911 115.871 64.0769 114.09 65.3328Z" fill="#63B1AA" stroke="#0A524B" stroke-width="0.357668" stroke-linejoin="round"/>
<path d="M115.026 69.263C115.69 69.3216 116.8 69.1005 116.8 69.1005" stroke="#0A524B" stroke-width="0.357668" stroke-linejoin="round" stroke-dasharray="0 0"/>
<path d="M114.311 70.0831C115.389 68.7866 117.934 64.879 117.85 63.6511" stroke="#0A524B" stroke-width="0.178834" stroke-linejoin="round"/>
<path d="M88.2069 80.6063C90.2976 79.992 90.0523 77.225 89.6684 75.9182C88.7991 75.7087 86.6231 75.8831 85.2447 77.0224C84.1419 77.9338 83.9347 80.1159 83.9689 81.093C84.5104 81.1867 86.1161 81.2207 88.2069 80.6063Z" fill="#63B1AA" stroke="#0A524B" stroke-width="0.357668" stroke-linejoin="round"/>
<path d="M88.589 76.5843C87.9795 76.3147 86.8569 76.1657 86.8569 76.1657" stroke="#0A524B" stroke-width="0.357668" stroke-linejoin="round" stroke-dasharray="0 0"/>
<path d="M89.5302 76.0386C88.0918 76.9182 84.4227 79.7961 84.1064 80.9855" stroke="#0A524B" stroke-width="0.178834" stroke-linejoin="round"/>
<path d="M115.121 82.0328C112.14 81.6026 112.233 78.7971 112.652 77.4481C118.607 76.5983 120.764 79.9459 121.098 81.726C120.348 82.0075 118.102 82.4631 115.121 82.0328Z" fill="#63B1AA" stroke="#0A524B" stroke-width="0.357668" stroke-linejoin="round"/>
<path d="M113.961 78.562C113.461 79.2588 113.662 80.4123 113.662 80.4123" stroke="#0A524B" stroke-width="0.357668" stroke-linejoin="round" stroke-dasharray="0 0"/>
<path d="M112.866 77.5085C114.27 78.5219 119.544 81.7775 121.048 81.5261" stroke="#0A524B" stroke-width="0.178834" stroke-linejoin="round"/>
<path d="M92.618 64.4663C95.301 65.8352 94.308 68.4607 93.4762 69.6024C87.5652 68.4858 86.6034 64.6214 86.8614 62.8288C87.6623 62.8042 89.935 63.0974 92.618 64.4663Z" fill="#63B1AA" stroke="#0A524B" stroke-width="0.357668" stroke-linejoin="round"/>
<path d="M92.5953 68.1257C93.2935 67.6275 93.4756 66.4709 93.4756 66.4709" stroke="#0A524B" stroke-width="0.357668" stroke-linejoin="round" stroke-dasharray="0 0"/>
<path d="M93.2925 69.4761C92.2901 68.0638 88.3488 63.2812 86.8441 63.0341" stroke="#0A524B" stroke-width="0.178834" stroke-linejoin="round"/>
<path d="M112.825 76.0902C115.16 79.481 120.523 78.7495 121.23 76.0649C120.869 74.8142 119.38 73.7457 116.931 73.753C114.607 73.76 113.18 75.195 112.825 76.0902Z" fill="#63B1AA" stroke="#0A524B" stroke-width="0.357668" stroke-linejoin="round"/>
<path d="M113.004 76.0896C114.674 76.323 120.231 76.6044 121.23 75.886" stroke="#0A524B" stroke-width="0.178834" stroke-linejoin="round"/>
<path d="M92.8741 70.8319C91.7577 66.8691 86.4455 65.8316 84.9101 68.1446C84.8488 69.4451 85.9132 70.9367 88.2335 71.7197C90.4364 72.463 92.2494 71.5648 92.8741 70.8319Z" fill="#63B1AA" stroke="#0A524B" stroke-width="0.357668" stroke-linejoin="round"/>
<path d="M92.7048 70.7747C91.1995 70.0151 86.0306 67.9564 84.853 68.314" stroke="#0A524B" stroke-width="0.178834" stroke-linejoin="round"/>
<path d="M116.855 68.7351C114.771 67.8536 113.438 70.7829 113.032 72.3578C113.64 73.1872 115.55 74.5675 117.332 74.4179C118.758 74.2982 120.144 72.2743 120.658 71.2773C120.259 70.7972 118.939 69.6167 116.855 68.7351Z" fill="#63B1AA" stroke="#0A524B" stroke-width="0.357668" stroke-linejoin="round"/>
<path d="M113.16 71.69C114.843 71.788 119.498 71.5168 120.437 70.7202" stroke="#0A524B" stroke-width="0.178834" stroke-linejoin="round"/>
<path d="M86.6868 76.4939C88.375 78.0006 90.582 75.6579 91.4745 74.2983C91.1665 73.3171 89.8033 71.3942 88.0683 70.961C86.6802 70.6144 84.716 72.0833 83.9074 72.861C84.1304 73.4442 84.9985 74.9872 86.6868 76.4939Z" fill="#63B1AA" stroke="#0A524B" stroke-width="0.357668" stroke-linejoin="round"/>
<path d="M91.1379 74.889C89.5763 74.2533 85.0824 73.0083 83.9375 73.4598" stroke="#0A524B" stroke-width="0.178834" stroke-linejoin="round"/>
<path d="M109.184 80.2334C108.882 84.3394 113.522 87.1261 115.754 85.4754C116.255 84.2737 115.763 82.5086 113.849 80.9813C112.032 79.5314 110.021 79.7575 109.184 80.2334Z" fill="#63B1AA" stroke="#0A524B" stroke-width="0.357668" stroke-linejoin="round"/>
<path d="M109.601 81.436C109.517 81.8271 109.466 82.4724 109.466 82.4724" stroke="#0A524B" stroke-width="0.357668" stroke-linejoin="round" stroke-dasharray="0 0"/>
<path d="M109.324 80.3449C110.48 81.5723 114.637 85.2701 115.866 85.3355" stroke="#0A524B" stroke-width="0.178834" stroke-linejoin="round"/>
<path d="M97.6574 68.0848C99.2674 64.2956 95.7744 60.1611 93.1291 61.0036C92.2671 61.9794 92.1635 63.8089 93.4828 65.872C94.7353 67.8306 96.7113 68.2652 97.6574 68.0848Z" fill="#63B1AA" stroke="#0A524B" stroke-width="0.357668" stroke-linejoin="round"/>
<path d="M97.6505 66.8119C97.8555 66.4686 98.1123 65.8744 98.1123 65.8744" stroke="#0A524B" stroke-width="0.357668" stroke-linejoin="round" stroke-dasharray="0 0"/>
<path d="M97.5606 67.9342C96.8622 66.3995 94.1202 61.5584 92.978 61.1001" stroke="#0A524B" stroke-width="0.178834" stroke-linejoin="round"/>
<path d="M106.939 75.8928C103.995 78.7703 105.627 83.9308 108.393 84.1714C109.564 83.6026 110.364 81.9539 109.941 79.5419C109.538 77.2521 107.882 76.0905 106.939 75.8928Z" fill="#63B1AA" stroke="#0A524B" stroke-width="0.357668" stroke-linejoin="round"/>
<path d="M107.165 78.2135C106.637 78.3063 105.911 79.3416 105.911 79.3416" stroke="#0A524B" stroke-width="0.357668" stroke-linejoin="round" stroke-dasharray="0 0"/>
<path d="M106.979 77.1522C106.658 77.3902 106.192 77.8398 106.192 77.8398" stroke="#0A524B" stroke-width="0.357668" stroke-linejoin="round" stroke-dasharray="0 0"/>
<path d="M106.97 76.0689C107.024 77.7541 107.691 83.2777 108.569 84.1403" stroke="#0A524B" stroke-width="0.178834" stroke-linejoin="round"/>
<path d="M98.3821 72.9175C102.097 71.1436 102.217 65.7324 99.6763 64.6126C98.3843 64.7732 97.0954 66.0757 96.7183 68.4954C96.3603 70.7925 97.5536 72.4264 98.3821 72.9175Z" fill="#63B1AA" stroke="#0A524B" stroke-width="0.357668" stroke-linejoin="round"/>
<path d="M98.917 70.6479C99.4471 70.7305 100.468 69.9847 100.468 69.9847" stroke="#0A524B" stroke-width="0.357668" stroke-linejoin="round" stroke-dasharray="0 0"/>
<path d="M98.751 71.7125C99.1319 71.5909 99.7178 71.3156 99.7178 71.3156" stroke="#0A524B" stroke-width="0.357668" stroke-linejoin="round" stroke-dasharray="0 0"/>
<path d="M98.4095 72.7407C98.9021 71.1282 100.052 65.6846 99.4995 64.585" stroke="#0A524B" stroke-width="0.178834" stroke-linejoin="round"/>
<path d="M113.422 76.6631C112.541 74.6701 109.83 75.2737 108.584 75.8245C108.489 76.7137 108.946 78.8484 110.255 80.0668C111.302 81.0414 113.493 80.9628 114.457 80.8016C114.479 80.2525 114.304 78.656 113.422 76.6631Z" fill="#63B1AA" stroke="#0A524B" stroke-width="0.357668" stroke-linejoin="round"/>
<path d="M108.722 75.9459C109.781 77.2576 113.113 80.5207 114.333 80.6793" stroke="#0A524B" stroke-width="0.178834" stroke-linejoin="round"/>
<path d="M92.4939 70.097C92.6853 72.2677 95.4466 72.5711 96.8033 72.4514C97.1796 71.6403 97.4363 69.4725 96.5902 67.897C95.9133 66.6366 93.8145 66.0045 92.8497 65.846C92.6514 66.3586 92.3024 67.9263 92.4939 70.097Z" fill="#63B1AA" stroke="#0A524B" stroke-width="0.357668" stroke-linejoin="round"/>
<path d="M96.712 72.2921C96.1324 70.7088 94.0318 66.5456 92.9277 66.0018" stroke="#0A524B" stroke-width="0.178834" stroke-linejoin="round"/>
<path d="M111.896 76.071C109.361 76.7987 107.795 74.7187 107.329 73.5877C111.397 70.8866 115.003 72.5761 116.298 73.7585C115.887 74.2261 114.432 75.3433 111.896 76.071Z" fill="#63B1AA" stroke="#0A524B" stroke-width="0.357668" stroke-linejoin="round"/>
<path d="M107.529 73.557C109.196 73.8058 115.137 74.3392 116.143 73.6302" stroke="#0A524B" stroke-width="0.178834" stroke-linejoin="round"/>
<path d="M93.7476 71.15C96.3825 71.2792 97.1934 73.753 97.2695 74.9737C92.5476 76.2182 89.6793 73.4558 88.8354 71.9191C89.3749 71.6089 91.1128 71.0208 93.7476 71.15Z" fill="#63B1AA" stroke="#0A524B" stroke-width="0.357668" stroke-linejoin="round"/>
<path d="M97.071 74.9384C95.5729 74.1649 90.1218 71.7438 88.9409 72.0904" stroke="#0A524B" stroke-width="0.178834" stroke-linejoin="round"/>
<path d="M110.021 70.3534C114.066 69.589 115.566 64.3884 113.396 62.6559C112.106 62.4807 110.527 63.4101 109.543 65.6528C108.61 67.7819 109.345 69.6667 110.021 70.3534Z" fill="#63B1AA" stroke="#0A524B" stroke-width="0.357668" stroke-linejoin="round"/>
<path d="M111.118 68.296C111.61 68.5115 112.788 68.0517 112.788 68.0517" stroke="#0A524B" stroke-width="0.357668" stroke-linejoin="round" stroke-dasharray="0 0"/>
<path d="M110.685 69.2829C111.085 69.2628 111.722 69.1465 111.722 69.1465" stroke="#0A524B" stroke-width="0.357668" stroke-linejoin="round" stroke-dasharray="0 0"/>
<path d="M110.093 70.1896C110.981 68.7568 113.486 63.7885 113.233 62.5841" stroke="#0A524B" stroke-width="0.178834" stroke-linejoin="round"/>
<path d="M93.6782 77.1667C89.6024 76.5853 86.5054 81.0241 87.9999 83.3637C89.1645 83.9458 90.9591 83.5754 92.6135 81.7699C94.1841 80.0558 94.0958 78.0344 93.6782 77.1667Z" fill="#63B1AA" stroke="#0A524B" stroke-width="0.357668" stroke-linejoin="round"/>
<path d="M91.9758 78.7601C91.5802 78.3976 90.3169 78.4528 90.3169 78.4528" stroke="#0A524B" stroke-width="0.357668" stroke-linejoin="round" stroke-dasharray="0 0"/>
<path d="M92.7035 77.9655C92.319 77.8557 91.6787 77.7603 91.6787 77.7603" stroke="#0A524B" stroke-width="0.357668" stroke-linejoin="round" stroke-dasharray="0 0"/>
<path d="M93.5575 77.2986C92.2541 78.3681 88.281 82.263 88.1318 83.4846" stroke="#0A524B" stroke-width="0.178834" stroke-linejoin="round"/>
<path d="M104.094 70.9418C107.56 68.7199 107.006 63.3359 104.346 62.5404C103.084 62.8603 101.967 64.3128 101.894 66.7607C101.824 69.0845 103.211 70.5574 104.094 70.9418Z" fill="#63B1AA" stroke="#0A524B" stroke-width="0.357668" stroke-linejoin="round"/>
<path d="M104.342 68.6234C104.878 68.6395 105.799 67.7726 105.799 67.7726" stroke="#0A524B" stroke-width="0.357668" stroke-linejoin="round" stroke-dasharray="0 0"/>
<path d="M104.564 67.1987C105.106 67.036 105.469 66.868 106.021 66.3479" stroke="#0A524B" stroke-width="0.357668" stroke-linejoin="round" stroke-dasharray="0 0"/>
<path d="M104.31 69.7003C104.673 69.5323 105.22 69.1863 105.22 69.1863" stroke="#0A524B" stroke-width="0.357668" stroke-linejoin="round" stroke-dasharray="0 0"/>
<path d="M104.099 70.763C104.388 69.1018 104.852 63.5575 104.167 62.535" stroke="#0A524B" stroke-width="0.178834" stroke-linejoin="round"/>
<path d="M99.478 78.5218C95.4805 79.5068 94.2682 84.7818 96.5293 86.3927C97.827 86.497 99.3529 85.4824 100.212 83.1891C101.028 81.012 100.19 79.1704 99.478 78.5218Z" fill="#63B1AA" stroke="#0A524B" stroke-width="0.357668" stroke-linejoin="round"/>
<path d="M98.4952 80.636C97.9928 80.4478 96.8418 80.9714 96.8418 80.9714" stroke="#0A524B" stroke-width="0.357668" stroke-linejoin="round" stroke-dasharray="0 0"/>
<path d="M97.8258 81.913C97.2607 81.8922 96.863 81.9342 96.1724 82.2484" stroke="#0A524B" stroke-width="0.357668" stroke-linejoin="round" stroke-dasharray="0 0"/>
<path d="M98.8729 79.627C98.4752 79.669 97.8457 79.82 97.8457 79.82" stroke="#0A524B" stroke-width="0.357668" stroke-linejoin="round" stroke-dasharray="0 0"/>
<path d="M99.4153 78.689C98.6065 80.1684 96.3783 85.2665 96.6968 86.4552" stroke="#0A524B" stroke-width="0.178834" stroke-linejoin="round"/>
<path d="M107.222 71.9895C110.568 74.3878 115.365 71.8813 115.121 69.1159C114.357 68.0618 112.594 67.5613 110.292 68.3985C108.108 69.1933 107.252 71.0269 107.222 71.9895Z" fill="#63B1AA" stroke="#0A524B" stroke-width="0.357668" stroke-linejoin="round"/>
<path d="M107.391 71.9284C109.041 71.5818 114.363 69.9625 115.06 68.9479" stroke="#0A524B" stroke-width="0.178834" stroke-linejoin="round"/>
<path d="M96.8546 76.5206C94.4606 73.1711 89.1114 73.9962 88.4512 76.6928C88.8344 77.937 90.3415 78.9794 92.7899 78.9292C95.1142 78.8816 96.5153 77.4219 96.8546 76.5206Z" fill="#63B1AA" stroke="#0A524B" stroke-width="0.357668" stroke-linejoin="round"/>
<path d="M96.676 76.5244C95.0024 76.3202 89.4417 76.136 88.4551 76.8717" stroke="#0A524B" stroke-width="0.178834" stroke-linejoin="round"/>
<path d="M104.955 66.5699C102.938 67.5464 104.104 70.4262 104.939 71.7441C105.929 71.8285 108.181 71.3026 109.27 69.8844C110.141 68.7498 109.647 66.4158 109.291 65.3907C108.686 65.3769 106.972 65.5934 104.955 66.5699Z" fill="#63B1AA" stroke="#0A524B" stroke-width="0.357668" stroke-linejoin="round"/>
<path d="M104.66 71.2983C105.866 70.1199 108.8 66.4956 108.843 65.2656" stroke="#0A524B" stroke-width="0.178834" stroke-linejoin="round"/>
<path d="M97.2526 82.3818C99.4765 82.108 99.3021 79.0061 98.9369 77.4894C98.0264 77.0899 95.726 76.8616 94.2373 77.8526C93.0464 78.6455 92.7614 81.0141 92.7677 82.0993C93.3361 82.3076 95.0287 82.6556 97.2526 82.3818Z" fill="#63B1AA" stroke="#0A524B" stroke-width="0.357668" stroke-linejoin="round"/>
<path d="M99.0575 78.0017C97.536 78.7282 93.5896 81.2123 93.1523 82.3627" stroke="#0A524B" stroke-width="0.178834" stroke-linejoin="round"/>
<path d="M101.443 75.3357C99.8961 73.972 101.175 72.9608 102.007 72.6257C105.396 72.6806 106.175 76.189 105.399 77.966C102.851 78.2036 101.206 76.3312 101.443 75.3357Z" fill="#FFDDCA" stroke="#0A524B" stroke-width="0.357668" stroke-linejoin="round"/>
<path d="M103.405 75.2177C104.43 77.0075 102.893 77.5522 101.997 77.6009C98.8075 76.4559 99.2019 72.8837 100.509 71.4519C102.998 72.0491 103.951 74.352 103.405 75.2177Z" fill="#FFDDCA" stroke="#0A524B" stroke-width="0.357668" stroke-linejoin="round"/>
<path d="M101.462 73.2981C102.283 74.381 103.406 74.489 103.865 74.4076C106.802 73.8868 105.803 71.6969 104.936 70.6671C103.206 69.2081 102.66 70.5268 102.604 71.3685C101.882 71.5605 100.642 72.2153 101.462 73.2981Z" fill="#FFDDCA"/>
<path d="M106.792 79.6463C105.353 79.6712 105.227 78.6122 105.345 78.0796C104.009 75.6295 107.991 76.075 108.338 76.8771C108.686 77.6792 108.59 79.6153 106.792 79.6463Z" fill="#FFDDCA"/>
<path d="M101.462 73.2981C102.283 74.381 103.406 74.489 103.865 74.4076C106.802 73.8868 105.803 71.6969 104.936 70.6671C103.206 69.2081 102.66 70.5268 102.604 71.3685C101.882 71.5605 100.642 72.2153 101.462 73.2981Z" stroke="#0A524B" stroke-width="0.357668" stroke-linejoin="round"/>
<path d="M106.792 79.6463C105.353 79.6712 105.227 78.6122 105.345 78.0796C104.009 75.6295 107.991 76.075 108.338 76.8771C108.686 77.6792 108.59 79.6153 106.792 79.6463Z" stroke="#0A524B" stroke-width="0.357668" stroke-linejoin="round"/>
<path d="M102.729 77.14C102.302 75.8504 101.274 75.386 100.813 75.315C97.8645 74.8605 98.104 77.2556 98.5923 78.51C99.7591 80.449 100.701 79.3768 101.026 78.5984C101.772 78.6496 103.156 78.4296 102.729 77.14Z" fill="#FFDDCA"/>
<path d="M99.7323 69.4122C101.102 69.8528 100.879 70.8956 100.597 71.3619C101.07 74.1118 97.445 72.4057 97.375 71.5344C97.3051 70.6632 98.0198 68.8613 99.7323 69.4122Z" fill="#FFDDCA"/>
<path d="M102.729 77.14C102.302 75.8504 101.274 75.386 100.813 75.315C97.8645 74.8605 98.104 77.2556 98.5923 78.51C99.7591 80.449 100.701 79.3768 101.026 78.5984C101.772 78.6496 103.156 78.4296 102.729 77.14Z" stroke="#0A524B" stroke-width="0.357668" stroke-linejoin="round"/>
<path d="M99.7323 69.4122C101.102 69.8528 100.879 70.8956 100.597 71.3619C101.07 74.1118 97.445 72.4057 97.375 71.5344C97.3051 70.6632 98.0198 68.8613 99.7323 69.4122Z" stroke="#0A524B" stroke-width="0.357668" stroke-linejoin="round"/>
<path d="M103.774 74.1866C103.799 71.9605 105.465 72.4295 106.295 72.9423C108.857 76.5843 105.753 76.9617 103.882 76.6952C101.616 75.7345 102.866 74.6225 103.774 74.1866Z" fill="#0A524B" stroke="#0A524B" stroke-width="0.357668" stroke-linejoin="round"/>
<path d="M100.828 75.5533C100.086 77.6524 98.6602 76.671 98.04 75.9179C96.7905 71.6443 99.8496 72.2881 101.535 73.1442C103.37 74.7845 101.828 75.4337 100.828 75.5533Z" fill="#0A524B" stroke="#0A524B" stroke-width="0.357668" stroke-linejoin="round"/>
<path d="M108.203 73.0166C108.604 71.0486 107.123 70.8936 106.332 71.0621C103.877 72.9299 106.312 75.5239 107.836 76.5874C109.832 75.4149 108.912 73.7184 108.203 73.0166Z" fill="#FFDDCA" stroke="#0A524B" stroke-width="0.357668" stroke-linejoin="round"/>
<path d="M96.2589 75.2323C95.2446 76.9658 96.5964 77.5903 97.3991 77.6858C100.325 76.7097 98.8578 73.4691 97.7582 71.9709C95.4904 72.4367 95.8137 74.3392 96.2589 75.2323Z" fill="#FFDDCA" stroke="#0A524B" stroke-width="0.357668" stroke-linejoin="round"/>
<ellipse cx="105.641" cy="49.489" rx="25.2096" ry="5.12602" transform="rotate(5.3091 105.641 49.489)" fill="#F5B896" stroke="black" stroke-width="0.491483" stroke-linejoin="round"/>
<path d="M132.736 72.7471C128.505 75.9925 127.075 78.7667 125.975 80.7823C128.4 72.4717 128.299 70.3569 129.06 67.446C136.495 67.6075 137.878 56.8805 135.297 55.363C133.231 54.1491 131.057 55.9899 130.228 57.0621L130.639 52.7397C131.248 52.0706 136.942 49.6929 139.225 56.2703C141.507 62.8477 137.235 69.2959 132.736 72.7471Z" fill="#FFDDCA" stroke="black" stroke-width="0.491483" stroke-linejoin="round"/>
<path d="M128.002 53.7159C128.002 53.7159 121.601 56.0584 104.52 54.4349C88.501 52.5056 83.6636 49.8652 83.6636 49.8652C98.1579 44.5109 108.832 53.716 128.002 53.7159Z" fill="#764738"/>
<path d="M128.002 53.7159C128.002 53.7159 97.6152 49.0338 83.6636 49.8651C98.1579 44.5109 108.832 53.7159 128.002 53.7159Z" fill="#633D32"/>
<path d="M30.1265 64.7672C32.6678 64.7672 35.7348 66.4014 35.7348 66.4014V70.3814C35.7348 70.3814 23.9841 61.8786 24.8886 76.8943C25.3682 84.8544 36.2775 89.1963 36.2775 89.1963C36.2775 89.1963 39.7751 101.378 40.2575 102.765C32.2974 92.0908 27.232 93.3572 23.2519 85.397C19.2717 77.4369 19.989 64.7672 30.1265 64.7672Z" fill="#FFDDCA" stroke="black" stroke-width="0.491483" stroke-linejoin="round"/>
<path d="M36.2778 89.3713C36.1331 85.3188 35.7351 71.0389 35.5542 64.4055C54.369 69.6157 77.1638 63.923 86.2094 60.4254C86.933 67.6619 88.3803 83.0394 88.3803 86.6576C88.3803 91.1804 88.0185 98.5977 84.7621 103.663C79.2138 112.294 61.7864 117.232 50.208 111.442C38.6297 105.653 36.4588 94.4368 36.2778 89.3713Z" fill="#FFDDCA" stroke="black" stroke-width="0.491483" stroke-linejoin="round"/>
<path d="M77.3583 80.0292C75.5775 81.2851 76.7022 83.8251 77.4871 84.9381C78.3776 84.8561 80.3809 83.9891 81.3182 82.4661C82.068 81.2476 81.5603 79.1153 81.2128 78.2015C80.6699 78.2874 79.1391 78.7732 77.3583 80.0292Z" fill="#63B1AA" stroke="#0A524B" stroke-width="0.357668" stroke-linejoin="round"/>
<path d="M78.2938 83.9594C78.9577 84.018 80.0684 83.7969 80.0684 83.7969" stroke="#0A524B" stroke-width="0.357668" stroke-linejoin="round" stroke-dasharray="0 0"/>
<path d="M77.5795 84.7795C78.6573 83.4829 81.202 79.5753 81.1177 78.3475" stroke="#0A524B" stroke-width="0.178834" stroke-linejoin="round"/>
<path d="M51.4749 95.3028C53.5657 94.6884 53.3204 91.9214 52.9364 90.6147C52.0672 90.4051 49.8912 90.5795 48.5127 91.7188C47.41 92.6303 47.2027 94.8123 47.2369 95.7894C47.7785 95.8832 49.3842 95.9171 51.4749 95.3028Z" fill="#63B1AA" stroke="#0A524B" stroke-width="0.357668" stroke-linejoin="round"/>
<path d="M51.8571 91.2808C51.2476 91.0112 50.125 90.8622 50.125 90.8622" stroke="#0A524B" stroke-width="0.357668" stroke-linejoin="round" stroke-dasharray="0 0"/>
<path d="M52.7978 90.735C51.3594 91.6145 47.6902 94.4924 47.374 95.6818" stroke="#0A524B" stroke-width="0.178834" stroke-linejoin="round"/>
<path d="M78.3888 96.7293C75.4077 96.299 75.5006 93.4935 75.9197 92.1445C81.875 91.2947 84.0318 94.6423 84.3659 96.4224C83.6157 96.7039 81.3699 97.1595 78.3888 96.7293Z" fill="#63B1AA" stroke="#0A524B" stroke-width="0.357668" stroke-linejoin="round"/>
<path d="M77.2296 93.2584C76.7294 93.9552 76.9302 95.1087 76.9302 95.1087" stroke="#0A524B" stroke-width="0.357668" stroke-linejoin="round" stroke-dasharray="0 0"/>
<path d="M76.1344 92.2048C77.5388 93.2183 82.8122 96.4739 84.3162 96.2225" stroke="#0A524B" stroke-width="0.178834" stroke-linejoin="round"/>
<path d="M55.8865 79.1627C58.5695 80.5316 57.5766 83.1571 56.7447 84.2988C50.8337 83.1822 49.872 79.3178 50.13 77.5252C50.9309 77.5006 53.2035 77.7938 55.8865 79.1627Z" fill="#63B1AA" stroke="#0A524B" stroke-width="0.357668" stroke-linejoin="round"/>
<path d="M55.8643 82.8221C56.5626 82.324 56.7446 81.1673 56.7446 81.1673" stroke="#0A524B" stroke-width="0.357668" stroke-linejoin="round" stroke-dasharray="0 0"/>
<path d="M56.5611 84.1725C55.5586 82.7602 51.6173 77.9776 50.1126 77.7305" stroke="#0A524B" stroke-width="0.178834" stroke-linejoin="round"/>
<path d="M76.0938 90.7866C78.4289 94.1774 83.7917 93.4459 84.499 90.7613C84.1375 89.5105 82.6489 88.442 80.2 88.4494C77.8752 88.4564 76.4488 89.8914 76.0938 90.7866Z" fill="#63B1AA" stroke="#0A524B" stroke-width="0.357668" stroke-linejoin="round"/>
<path d="M76.2728 90.786C77.9426 91.0194 83.4992 91.3008 84.4985 90.5824" stroke="#0A524B" stroke-width="0.178834" stroke-linejoin="round"/>
<path d="M56.1422 85.5284C55.0257 81.5656 49.7136 80.5281 48.1782 82.8411C48.1168 84.1416 49.1812 85.6332 51.5016 86.4161C53.7044 87.1594 55.5174 86.2613 56.1422 85.5284Z" fill="#63B1AA" stroke="#0A524B" stroke-width="0.357668" stroke-linejoin="round"/>
<path d="M55.9724 85.4712C54.4671 84.7117 49.2982 82.653 48.1206 83.0106" stroke="#0A524B" stroke-width="0.178834" stroke-linejoin="round"/>
<path d="M80.1234 83.4317C78.0394 82.5501 76.7061 85.4794 76.2999 87.0543C76.9079 87.8837 78.8184 89.2641 80.6005 89.1145C82.0262 88.9948 83.4116 86.9708 83.9261 85.9738C83.5269 85.4938 82.2074 84.3132 80.1234 83.4317Z" fill="#63B1AA" stroke="#0A524B" stroke-width="0.357668" stroke-linejoin="round"/>
<path d="M76.428 86.3865C78.1112 86.4845 82.7665 86.2133 83.7046 85.4167" stroke="#0A524B" stroke-width="0.178834" stroke-linejoin="round"/>
<path d="M49.9548 91.1904C51.6431 92.697 53.8501 90.3544 54.7425 88.9947C54.4345 88.0135 53.0714 86.0907 51.3363 85.6574C49.9483 85.3109 47.9841 86.7797 47.1754 87.5575C47.3985 88.1406 48.2666 89.6837 49.9548 91.1904Z" fill="#63B1AA" stroke="#0A524B" stroke-width="0.357668" stroke-linejoin="round"/>
<path d="M54.406 89.5854C52.8444 88.9497 48.3505 87.7048 47.2056 88.1562" stroke="#0A524B" stroke-width="0.178834" stroke-linejoin="round"/>
<path d="M72.4523 94.9298C72.1505 99.0358 76.7905 101.823 79.0226 100.172C79.5237 98.9701 79.0318 97.205 77.1174 95.6777C75.3001 94.2278 73.2895 94.4539 72.4523 94.9298Z" fill="#63B1AA" stroke="#0A524B" stroke-width="0.357668" stroke-linejoin="round"/>
<path d="M72.8691 96.1324C72.7858 96.5235 72.7344 97.1688 72.7344 97.1688" stroke="#0A524B" stroke-width="0.357668" stroke-linejoin="round" stroke-dasharray="0 0"/>
<path d="M72.5922 95.0414C73.7483 96.2687 77.9053 99.9666 79.1343 100.032" stroke="#0A524B" stroke-width="0.178834" stroke-linejoin="round"/>
<path d="M60.9254 82.7812C62.5355 78.9921 59.0425 74.8576 56.3972 75.7001C55.5352 76.6759 55.4315 78.5054 56.7509 80.5685C58.0033 82.5271 59.9794 82.9616 60.9254 82.7812Z" fill="#63B1AA" stroke="#0A524B" stroke-width="0.357668" stroke-linejoin="round"/>
<path d="M60.9186 81.5084C61.1235 81.1651 61.3804 80.5709 61.3804 80.5709" stroke="#0A524B" stroke-width="0.357668" stroke-linejoin="round" stroke-dasharray="0 0"/>
<path d="M60.8291 82.6307C60.1308 81.096 57.3888 76.2549 56.2466 75.7965" stroke="#0A524B" stroke-width="0.178834" stroke-linejoin="round"/>
<path d="M70.2069 90.5892C67.2624 93.4667 68.8949 98.6272 71.6607 98.8678C72.8318 98.299 73.6317 96.6503 73.2081 94.2383C72.806 91.9485 71.1495 90.7869 70.2069 90.5892Z" fill="#63B1AA" stroke="#0A524B" stroke-width="0.357668" stroke-linejoin="round"/>
<path d="M70.4332 92.9099C69.9047 93.0027 69.1787 94.0381 69.1787 94.0381" stroke="#0A524B" stroke-width="0.357668" stroke-linejoin="round" stroke-dasharray="0 0"/>
<path d="M70.2466 91.8487C69.9252 92.0867 69.4595 92.5362 69.4595 92.5362" stroke="#0A524B" stroke-width="0.357668" stroke-linejoin="round" stroke-dasharray="0 0"/>
<path d="M70.2379 90.7653C70.2918 92.4505 70.9591 97.9741 71.8369 98.8368" stroke="#0A524B" stroke-width="0.178834" stroke-linejoin="round"/>
<path d="M61.6501 87.6139C65.3654 85.8401 65.4847 80.4289 62.9444 79.309C61.6524 79.4696 60.3635 80.7721 59.9864 83.1918C59.6284 85.4889 60.8217 87.1229 61.6501 87.6139Z" fill="#63B1AA" stroke="#0A524B" stroke-width="0.357668" stroke-linejoin="round"/>
<path d="M62.185 85.3444C62.7151 85.427 63.7363 84.6812 63.7363 84.6812" stroke="#0A524B" stroke-width="0.357668" stroke-linejoin="round" stroke-dasharray="0 0"/>
<path d="M62.019 86.409C62.4 86.2874 62.9858 86.0121 62.9858 86.0121" stroke="#0A524B" stroke-width="0.357668" stroke-linejoin="round" stroke-dasharray="0 0"/>
<path d="M61.6775 87.4372C62.1701 85.8247 63.3202 80.3811 62.7676 79.2814" stroke="#0A524B" stroke-width="0.178834" stroke-linejoin="round"/>
<path d="M76.6905 91.3595C75.8091 89.3666 73.0976 89.9701 71.852 90.521C71.7574 91.4102 72.2137 93.5449 73.5228 94.7632C74.5701 95.7379 76.7606 95.6593 77.7249 95.4981C77.7474 94.949 77.5719 93.3525 76.6905 91.3595Z" fill="#63B1AA" stroke="#0A524B" stroke-width="0.357668" stroke-linejoin="round"/>
<path d="M71.989 90.6424C73.0484 91.9541 76.3797 95.2172 77.6001 95.3758" stroke="#0A524B" stroke-width="0.178834" stroke-linejoin="round"/>
<path d="M55.762 84.7934C55.9534 86.9641 58.7146 87.2674 60.0713 87.1478C60.4477 86.3367 60.7044 84.1689 59.8582 82.5934C59.1813 81.333 57.0826 80.7009 56.1178 80.5424C55.9194 81.0549 55.5705 82.6226 55.762 84.7934Z" fill="#63B1AA" stroke="#0A524B" stroke-width="0.357668" stroke-linejoin="round"/>
<path d="M59.9806 86.9885C59.4009 85.4052 57.3003 81.242 56.1963 80.6982" stroke="#0A524B" stroke-width="0.178834" stroke-linejoin="round"/>
<path d="M75.1643 90.7674C72.6286 91.4951 71.063 89.4151 70.5972 88.2841C74.6653 85.583 78.2714 87.2725 79.5659 88.4549C79.1552 88.9225 77.6999 90.0397 75.1643 90.7674Z" fill="#63B1AA" stroke="#0A524B" stroke-width="0.357668" stroke-linejoin="round"/>
<path d="M70.7963 88.2534C72.4639 88.5022 78.4046 89.0356 79.4105 88.3266" stroke="#0A524B" stroke-width="0.178834" stroke-linejoin="round"/>
<path d="M57.0152 85.8464C59.6501 85.9756 60.461 88.4493 60.5371 89.6701C55.8151 90.9146 52.9468 88.1522 52.1029 86.6155C52.6425 86.3053 54.3803 85.7172 57.0152 85.8464Z" fill="#63B1AA" stroke="#0A524B" stroke-width="0.357668" stroke-linejoin="round"/>
<path d="M60.3386 89.6348C58.8405 88.8613 53.3894 86.4401 52.2085 86.7868" stroke="#0A524B" stroke-width="0.178834" stroke-linejoin="round"/>
<path d="M73.2886 85.0497C77.3341 84.2853 78.8338 79.0848 76.6644 77.3523C75.3744 77.177 73.7951 78.1064 72.8115 80.3492C71.8778 82.4782 72.6134 84.3631 73.2886 85.0497Z" fill="#63B1AA" stroke="#0A524B" stroke-width="0.357668" stroke-linejoin="round"/>
<path d="M74.3863 82.9925C74.8777 83.2079 76.0557 82.7482 76.0557 82.7482" stroke="#0A524B" stroke-width="0.357668" stroke-linejoin="round" stroke-dasharray="0 0"/>
<path d="M73.9536 83.9793C74.3529 83.9591 74.9897 83.8429 74.9897 83.8429" stroke="#0A524B" stroke-width="0.357668" stroke-linejoin="round" stroke-dasharray="0 0"/>
<path d="M73.3607 84.886C74.2495 83.4532 76.7539 78.4849 76.501 77.2804" stroke="#0A524B" stroke-width="0.178834" stroke-linejoin="round"/>
<path d="M56.9463 91.8631C52.8705 91.2817 49.7734 95.7206 51.268 98.0602C52.4326 98.6422 54.2272 98.2719 55.8816 96.4663C57.4522 94.7523 57.3639 92.7309 56.9463 91.8631Z" fill="#63B1AA" stroke="#0A524B" stroke-width="0.357668" stroke-linejoin="round"/>
<path d="M55.2434 93.4566C54.8478 93.0941 53.5845 93.1493 53.5845 93.1493" stroke="#0A524B" stroke-width="0.357668" stroke-linejoin="round" stroke-dasharray="0 0"/>
<path d="M55.9716 92.6619C55.587 92.5521 54.9468 92.4568 54.9468 92.4568" stroke="#0A524B" stroke-width="0.357668" stroke-linejoin="round" stroke-dasharray="0 0"/>
<path d="M56.8251 91.995C55.5217 93.0646 51.5486 96.9594 51.3994 98.1811" stroke="#0A524B" stroke-width="0.178834" stroke-linejoin="round"/>
<path d="M67.3622 85.6382C70.8283 83.4164 70.2742 78.0323 67.6144 77.2368C66.3524 77.5567 65.2353 79.0093 65.1618 81.4571C65.0921 83.7809 66.4792 85.2539 67.3622 85.6382Z" fill="#63B1AA" stroke="#0A524B" stroke-width="0.357668" stroke-linejoin="round"/>
<path d="M67.61 83.3199C68.1463 83.336 69.0669 82.469 69.0669 82.469" stroke="#0A524B" stroke-width="0.357668" stroke-linejoin="round" stroke-dasharray="0 0"/>
<path d="M67.8322 81.8951C68.3738 81.7325 68.7367 81.5645 69.2891 81.0443" stroke="#0A524B" stroke-width="0.357668" stroke-linejoin="round" stroke-dasharray="0 0"/>
<path d="M67.5783 84.3968C67.9412 84.2288 68.4883 83.8828 68.4883 83.8828" stroke="#0A524B" stroke-width="0.357668" stroke-linejoin="round" stroke-dasharray="0 0"/>
<path d="M67.3674 85.4595C67.6558 83.7982 68.1205 78.2539 67.4355 77.2314" stroke="#0A524B" stroke-width="0.178834" stroke-linejoin="round"/>
<path d="M62.7466 93.2182C58.7491 94.2032 57.5368 99.4782 59.7978 101.089C61.0956 101.193 62.6215 100.179 63.4806 97.8856C64.2963 95.7085 63.4584 93.8668 62.7466 93.2182Z" fill="#63B1AA" stroke="#0A524B" stroke-width="0.357668" stroke-linejoin="round"/>
<path d="M61.7638 95.3324C61.2614 95.1442 60.1104 95.6679 60.1104 95.6679" stroke="#0A524B" stroke-width="0.357668" stroke-linejoin="round" stroke-dasharray="0 0"/>
<path d="M61.0944 96.6094C60.5292 96.5887 60.1315 96.6307 59.4409 96.9449" stroke="#0A524B" stroke-width="0.357668" stroke-linejoin="round" stroke-dasharray="0 0"/>
<path d="M62.1419 94.3234C61.7442 94.3654 61.1147 94.5164 61.1147 94.5164" stroke="#0A524B" stroke-width="0.357668" stroke-linejoin="round" stroke-dasharray="0 0"/>
<path d="M62.6839 93.3854C61.875 94.8648 59.6468 99.9629 59.9653 101.152" stroke="#0A524B" stroke-width="0.178834" stroke-linejoin="round"/>
<path d="M70.4905 86.686C73.8369 89.0842 78.634 86.5778 78.3892 83.8124C77.6251 82.7582 75.8623 82.2577 73.561 83.095C71.3762 83.8898 70.5209 85.7234 70.4905 86.686Z" fill="#63B1AA" stroke="#0A524B" stroke-width="0.357668" stroke-linejoin="round"/>
<path d="M70.6586 86.6249C72.3087 86.2783 77.6316 84.659 78.3281 83.6444" stroke="#0A524B" stroke-width="0.178834" stroke-linejoin="round"/>
<path d="M60.1231 91.2171C57.7292 87.8676 52.38 88.6926 51.7197 91.3892C52.1029 92.6335 53.61 93.6758 56.0584 93.6257C58.3828 93.578 59.7839 92.1184 60.1231 91.2171Z" fill="#63B1AA" stroke="#0A524B" stroke-width="0.357668" stroke-linejoin="round"/>
<path d="M59.9441 91.2209C58.2705 91.0167 52.7098 90.8324 51.7231 91.5681" stroke="#0A524B" stroke-width="0.178834" stroke-linejoin="round"/>
<path d="M68.223 81.2663C66.2063 82.2429 67.3719 85.1227 68.2069 86.4405C69.1975 86.5249 71.4486 85.999 72.538 84.5808C73.4095 83.4462 72.9153 81.1122 72.5593 80.0871C71.9541 80.0733 70.2397 80.2898 68.223 81.2663Z" fill="#63B1AA" stroke="#0A524B" stroke-width="0.357668" stroke-linejoin="round"/>
<path d="M67.9276 85.9948C69.1334 84.8163 72.0676 81.192 72.1104 79.9621" stroke="#0A524B" stroke-width="0.178834" stroke-linejoin="round"/>
<path d="M60.5207 97.0783C62.7446 96.8045 62.5701 93.7026 62.2049 92.1859C61.2945 91.7864 58.994 91.5581 57.5054 92.5491C56.3145 93.3419 56.0295 95.7106 56.0358 96.7958C56.6041 97.004 58.2967 97.3521 60.5207 97.0783Z" fill="#63B1AA" stroke="#0A524B" stroke-width="0.357668" stroke-linejoin="round"/>
<path d="M62.3256 92.6982C60.804 93.4247 56.8576 95.9088 56.4204 97.0592" stroke="#0A524B" stroke-width="0.178834" stroke-linejoin="round"/>
<path d="M64.7107 90.0322C63.1637 88.6685 64.4421 87.6573 65.2747 87.3222C68.6633 87.377 69.4423 90.8855 68.6668 92.6624C66.1182 92.9001 64.4732 91.0277 64.7107 90.0322Z" fill="#FFDDCA" stroke="#0A524B" stroke-width="0.357668" stroke-linejoin="round"/>
<path d="M66.6729 89.9141C67.6972 91.7039 66.161 92.2487 65.2648 92.2973C62.0751 91.1524 62.4694 87.5802 63.7767 86.1483C66.2657 86.7455 67.2188 89.0485 66.6729 89.9141Z" fill="#FFDDCA" stroke="#0A524B" stroke-width="0.357668" stroke-linejoin="round"/>
<path d="M64.7305 87.9945C65.5508 89.0774 66.6738 89.1854 67.1328 89.104C70.0702 88.5832 69.0709 86.3933 68.2041 85.3635C66.4742 83.9045 65.9286 85.2232 65.872 86.0649C65.1497 86.2569 63.9103 86.9117 64.7305 87.9945Z" fill="#FFDDCA"/>
<path d="M70.0597 94.3427C68.6208 94.3675 68.4954 93.3086 68.6126 92.776C67.2774 90.3259 71.2591 90.7714 71.6064 91.5735C71.9536 92.3756 71.8583 94.3117 70.0597 94.3427Z" fill="#FFDDCA"/>
<path d="M64.7305 87.9945C65.5508 89.0774 66.6738 89.1854 67.1328 89.104C70.0702 88.5832 69.0709 86.3933 68.2041 85.3635C66.4742 83.9045 65.9286 85.2232 65.872 86.0649C65.1497 86.2569 63.9103 86.9117 64.7305 87.9945Z" stroke="#0A524B" stroke-width="0.357668" stroke-linejoin="round"/>
<path d="M70.0597 94.3427C68.6208 94.3675 68.4954 93.3086 68.6126 92.776C67.2774 90.3259 71.2591 90.7714 71.6064 91.5735C71.9536 92.3756 71.8583 94.3117 70.0597 94.3427Z" stroke="#0A524B" stroke-width="0.357668" stroke-linejoin="round"/>
<path d="M65.9969 91.8365C65.5698 90.5469 64.5417 90.0825 64.081 90.0114C61.1326 89.5569 61.3721 91.952 61.8604 93.2064C63.0272 95.1454 63.969 94.0733 64.2941 93.2948C65.0396 93.346 66.424 93.126 65.9969 91.8365Z" fill="#FFDDCA"/>
<path d="M63.0004 84.1086C64.3704 84.5493 64.1474 85.592 63.8647 86.0583C64.3382 88.8082 60.713 87.1021 60.6431 86.2309C60.5731 85.3597 61.2879 83.5578 63.0004 84.1086Z" fill="#FFDDCA"/>
<path d="M65.9969 91.8365C65.5698 90.5469 64.5417 90.0825 64.081 90.0114C61.1326 89.5569 61.3721 91.952 61.8604 93.2064C63.0272 95.1454 63.969 94.0733 64.2941 93.2948C65.0396 93.346 66.424 93.126 65.9969 91.8365Z" stroke="#0A524B" stroke-width="0.357668" stroke-linejoin="round"/>
<path d="M63.0004 84.1086C64.3704 84.5493 64.1474 85.592 63.8647 86.0583C64.3382 88.8082 60.713 87.1021 60.6431 86.2309C60.5731 85.3597 61.2879 83.5578 63.0004 84.1086Z" stroke="#0A524B" stroke-width="0.357668" stroke-linejoin="round"/>
<path d="M67.0423 88.883C67.0673 86.6569 68.7335 87.1259 69.5635 87.6387C72.1247 91.2807 69.0215 91.6581 67.1497 91.3916C64.8836 90.4309 66.1339 89.3189 67.0423 88.883Z" fill="#0A524B" stroke="#0A524B" stroke-width="0.357668" stroke-linejoin="round"/>
<path d="M64.0954 90.2497C63.3537 92.3488 61.9278 91.3674 61.3076 90.6143C60.0581 86.3407 63.1172 86.9845 64.8029 87.8406C66.638 89.4809 65.0958 90.1301 64.0954 90.2497Z" fill="#0A524B" stroke="#0A524B" stroke-width="0.357668" stroke-linejoin="round"/>
<path d="M71.4705 87.713C71.8713 85.745 70.3903 85.59 69.5997 85.7585C67.1448 87.6263 69.5792 90.2203 71.1032 91.2838C73.0996 90.1113 72.1799 88.4148 71.4705 87.713Z" fill="#FFDDCA" stroke="#0A524B" stroke-width="0.357668" stroke-linejoin="round"/>
<path d="M59.5264 89.9287C58.5122 91.6622 59.864 92.2867 60.6667 92.3822C63.5929 91.4061 62.1254 88.1655 61.0258 86.6673C58.758 87.1331 59.0813 89.0356 59.5264 89.9287Z" fill="#FFDDCA" stroke="#0A524B" stroke-width="0.357668" stroke-linejoin="round"/>
<ellipse cx="60.8096" cy="62.2479" rx="25.3562" ry="4.20672" transform="rotate(-4.39464 60.8096 62.2479)" fill="#F5B896" stroke="black" stroke-width="0.491483" stroke-linejoin="round"/>
<path d="M81.5137 62.964C81.5137 62.964 75.0945 65.3691 61.1318 66.4422C47.1691 67.5152 41.3513 66.2204 41.3513 66.2204C57.6334 64.954 71.5635 56.0894 81.5137 62.964Z" fill="#764738"/>
<path d="M81.5137 62.964C81.5137 62.964 77.3527 60.6121 68.1262 62.6022C58.8997 64.5922 41.3513 66.2204 41.3513 66.2204C57.6334 64.954 71.5635 56.0894 81.5137 62.964Z" fill="#633D32"/>
</svg>
