<svg width="130" height="135" viewBox="0 0 130 135" fill="none" xmlns="http://www.w3.org/2000/svg">
<circle cx="65" cy="65" r="65" fill="#E9EAEE"/>
<path d="M52.4353 71.8569C46.8373 71.8569 42.2812 67.176 42.2812 61.4245V41.1862C42.2812 40.5712 42.7579 40.0814 43.3565 40.0814C43.9551 40.0814 44.4318 40.5712 44.4318 41.1862V61.4131C44.4318 65.946 48.0234 69.6474 52.4353 69.6474C56.8472 69.6474 60.4499 65.9574 60.4499 61.4131V40.1384C60.4499 39.5234 60.9265 39.0336 61.5251 39.0336C62.1237 39.0336 62.6004 39.5234 62.6004 40.1384V61.4131C62.6004 67.1646 58.0444 71.8455 52.4464 71.8455L52.4353 71.8569Z" fill="black"/>
<path d="M89.1198 35.4977L39.3095 43.2799C36.3613 43.7406 34.3447 46.504 34.8053 49.4522L46.181 122.262C46.6417 125.211 49.4051 127.227 52.3533 126.766L102.164 118.984C105.112 118.524 107.128 115.76 106.668 112.812L95.292 40.0018C94.8314 37.0536 92.068 35.037 89.1198 35.4977Z" fill="#002B6A" stroke="black" stroke-width="0.878209"/>
<path opacity="0.2" d="M51.1501 81.7508L91.0869 75.3111C91.4696 75.2494 91.83 75.5096 91.8917 75.8924L91.9498 76.2529C92.0115 76.6357 91.7513 76.996 91.3685 77.0577L51.4317 83.4975C51.049 83.5592 50.6886 83.2989 50.6269 82.9162L50.5688 82.5557C50.5071 82.1729 50.7673 81.8126 51.1501 81.7508Z" fill="black" stroke="black" stroke-width="0.878209"/>
<path opacity="0.2" d="M52.874 92.4309L92.8107 85.9911C93.1935 85.9294 93.5538 86.1897 93.6155 86.5725L93.6737 86.933C93.7354 87.3157 93.4751 87.6761 93.0924 87.7378L53.1556 94.1775C52.7728 94.2392 52.4125 93.979 52.3508 93.5962L52.2927 93.2357C52.2309 92.8529 52.4912 92.4926 52.874 92.4309Z" fill="black" stroke="black" stroke-width="0.878209"/>
<path opacity="0.2" d="M54.5893 103.124L94.5261 96.6841C94.9088 96.6224 95.2692 96.8827 95.3309 97.2654L95.389 97.6259C95.4507 98.0087 95.1905 98.369 94.8077 98.4308L54.8709 104.87C54.4882 104.932 54.1278 104.672 54.0661 104.289L54.008 103.929C53.9463 103.546 54.2065 103.186 54.5893 103.124Z" fill="black" stroke="black" stroke-width="0.878209"/>
<path d="M88.0696 38.0705L37.9881 43.8562C35.0238 44.1987 32.8984 46.8793 33.2409 49.8436L41.6982 123.05C42.0407 126.014 44.7213 128.14 47.6856 127.797L97.7671 122.012C100.731 121.669 102.857 118.988 102.514 116.024L94.0569 42.8177C93.7145 39.8534 91.0339 37.728 88.0696 38.0705Z" fill="#DDEAFF" stroke="black" stroke-width="0.878209"/>
<path opacity="0.2" d="M48.2821 82.7842L88.4443 77.9454C88.8292 77.899 89.1789 78.1734 89.2253 78.5584L89.2689 78.9209C89.3153 79.3058 89.0409 79.6555 88.6559 79.7019L48.4938 84.5407C48.1088 84.5871 47.7592 84.3126 47.7128 83.9277L47.6691 83.5651C47.6228 83.1802 47.8972 82.8306 48.2821 82.7842Z" fill="black" stroke="black" stroke-width="0.878209"/>
<path opacity="0.2" d="M49.5817 93.5288L89.7439 88.69C90.1288 88.6436 90.4784 88.9181 90.5248 89.303L90.5685 89.6655C90.6149 90.0505 90.3404 90.4001 89.9555 90.4465L49.7933 95.2853C49.4084 95.3317 49.0587 95.0572 49.0124 94.6723L48.9687 94.3098C48.9223 93.9248 49.1968 93.5752 49.5817 93.5288Z" fill="black" stroke="black" stroke-width="0.878209"/>
<path d="M85.4503 51.2295L85.351 51.0805L85.1758 51.0434L44.32 42.4021C41.0568 41.7119 37.852 43.7977 37.1618 47.0608L22.7291 115.298C22.0389 118.561 24.1248 121.766 27.3879 122.456L80.9314 133.781C84.1945 134.471 87.3993 132.385 88.0895 129.122L99.9224 73.1768L99.9606 72.996L99.8582 72.8423L85.4503 51.2295Z" fill="#F7FAFF" stroke="black" stroke-width="0.878209"/>
<path d="M86.9778 68.664L86.9619 68.6593L86.9456 68.6559C84.3903 68.1154 82.7639 65.6733 83.2815 63.2257L85.6782 51.8946C90.2157 58.1948 94.7193 65.4944 98.7928 72.1139L86.9778 68.664Z" fill="#BABECB" stroke="black" stroke-width="0.878209"/>
<path d="M50.1626 85.8127C52.1802 85.8127 54.0349 85.1188 55.5147 83.968L63.1976 91.6506C63.6243 92.0773 64.3162 92.0773 64.7429 91.6506C65.1697 91.2238 65.1697 90.5319 64.7429 90.1052L57.0601 82.4226C58.2121 80.9418 58.9061 79.0872 58.9061 77.0698C58.9061 72.2491 54.9836 68.3268 50.1626 68.3268C45.3417 68.3268 41.4192 72.2491 41.4192 77.0698C41.4192 81.8904 45.3417 85.8127 50.1626 85.8127ZM50.1626 70.5125C53.7792 70.5125 56.7202 73.4534 56.7202 77.0698C56.7202 80.6861 53.7792 83.627 50.1626 83.627C46.5461 83.627 43.6051 80.6861 43.6051 77.0698C43.6051 73.4534 46.5461 70.5125 50.1626 70.5125Z" fill="#98C1FF"/>
<path d="M77.6273 106.594L37.8662 99.1459C37.2468 99.0299 36.6506 99.438 36.5345 100.057L36.4673 100.416C36.3513 101.036 36.7594 101.632 37.3788 101.748L77.1399 109.196C77.7593 109.312 78.3555 108.904 78.4716 108.285L78.5388 107.926C78.6549 107.306 78.2468 106.71 77.6273 106.594Z" fill="#98C1FF"/>
<path d="M75.6245 117.233L35.8647 109.778C35.2453 109.662 34.649 110.07 34.5329 110.69L34.4656 111.049C34.3494 111.668 34.7574 112.264 35.3768 112.38L75.1366 119.835C75.756 119.952 76.3523 119.544 76.4685 118.924L76.5358 118.565C76.6519 117.946 76.2439 117.35 75.6245 117.233Z" fill="#98C1FF"/>
<path d="M57.4353 43.3655H55.2215V39.5656C55.2215 36.6101 52.8138 34.2024 49.8583 34.2024C46.9028 34.2024 44.495 36.6101 44.495 39.5656V42.2586H42.2812V39.5656C42.2927 35.4005 45.6932 32 49.8697 32C54.0462 32 57.4467 35.4005 57.4467 39.577V43.3769L57.4353 43.3655Z" fill="#002B6A"/>
<path d="M52.553 63.34C49.9399 63.34 47.8174 61.2175 47.8174 58.6044V41.0654C47.8174 40.4492 48.3081 39.9585 48.9243 39.9585C49.5405 39.9585 50.0312 40.4492 50.0312 41.0654V58.593C50.0312 59.9851 51.1609 61.1148 52.553 61.1148C53.9452 61.1148 55.0749 59.9851 55.0749 58.593V42.1152C55.0749 41.499 55.5656 41.0083 56.1818 41.0083C56.798 41.0083 57.2887 41.499 57.2887 42.1152V58.593C57.2887 61.2061 55.1662 63.3286 52.553 63.3286V63.34Z" fill="#002B6A"/>
</svg>
