<svg width="133" height="135" viewBox="0 0 133 135" fill="none" xmlns="http://www.w3.org/2000/svg">
<path d="M105.396 43.5495H119.156M105.396 39.8559H111.992M105.396 35.6345H108.076M109.593 35.6345H117.079M113.79 39.8559H123.264" stroke="black" stroke-width="0.411168" stroke-linecap="round"/>
<path d="M127.337 21.5606H122.384C121.309 21.5606 120.429 20.6606 120.429 19.5413V14.4289C122.818 16.7189 125.121 19.098 127.337 21.5606Z" fill="#BABECB" stroke="black" stroke-width="0.325508"/>
<circle cx="66.0408" cy="70.6023" r="64.3306" fill="#E9EAEE"/>
<path d="M100.807 14.4437C100.807 14.1787 101.022 13.964 101.287 13.964H119.756C119.886 13.964 120.01 14.0167 120.101 14.1101L127.33 21.5828C127.416 21.6722 127.465 21.7918 127.465 21.9163V48.1937C127.465 48.4586 127.25 48.6734 126.985 48.6734H101.287C101.022 48.6734 100.807 48.4586 100.807 48.1937V14.4437Z" fill="#BABECB" stroke="black" stroke-width="0.411168"/>
<path d="M24.3834 116.273C24.7556 123.463 26.7571 129.299 31.0464 132.837L83.6345 133.362C74.9024 123.675 67.5717 95.8229 105.076 58.3613C105.812 57.4219 106.568 56.2375 107.124 54.9786C107.683 53.7134 108.035 52.3866 107.976 51.1638C107.918 49.9487 107.454 48.8338 106.371 47.968C105.28 47.0964 103.543 46.462 100.91 46.2601C94.2307 45.7478 91.3285 43.932 89.318 42.2222C88.9744 41.9299 88.6596 41.6441 88.3587 41.371C86.903 40.0494 85.7734 39.0238 83.282 38.9989C80.2216 38.9683 76.6992 40.0279 73.4745 41.104C73.0291 41.2526 72.5892 41.4016 72.1571 41.548C71.0315 41.9292 69.9594 42.2923 68.9834 42.5835C67.6362 42.9855 66.4449 43.2593 65.5254 43.2501C64.6156 43.2411 63.0689 42.9435 61.257 42.5812C61.0984 42.5495 60.9376 42.5172 60.7749 42.4846C59.0665 42.142 57.141 41.7558 55.251 41.4851C53.1787 41.1882 51.1651 41.0327 49.5393 41.2207C47.9038 41.4097 46.7277 41.9378 46.2277 42.9417L46.2266 42.9438C40.0585 54.978 31.9049 73.924 27.4887 91.6478C25.2805 100.51 24.0098 109.056 24.3834 116.273Z" fill="white" stroke="black" stroke-width="0.411168"/>
<path d="M84.8258 61.8364L55.6181 59.7734" stroke="black" stroke-width="0.411168" stroke-linecap="round" stroke-linejoin="round"/>
<path d="M79.2477 74.9782L50.04 72.9152" stroke="black" stroke-width="0.411168" stroke-linecap="round" stroke-linejoin="round"/>
<path d="M76.6774 88.6836L54.5623 86.9634" stroke="black" stroke-width="0.411168" stroke-linecap="round" stroke-linejoin="round"/>
<path d="M28.5217 130.307C32.4963 131.13 38.6296 124.225 37.3447 116.43C40.6854 124.482 33.233 133.22 31.2628 132.791L31.2354 132.785C29.6861 132.449 29.6288 132.436 28.5217 130.307Z" fill="black" stroke="black" stroke-width="0.411168"/>
<path d="M88.5489 117.023L37.6017 116.514C38.5322 120.044 37.6722 123.531 36.2188 126.459C34.8533 129.211 32.9555 131.486 31.4882 132.87L84.0047 133.357C86.2678 132.781 87.7729 131.781 88.7416 130.542C89.7153 129.298 90.1617 127.793 90.2725 126.189C90.4908 123.03 89.4042 119.536 88.5489 117.023Z" fill="white" stroke="black" stroke-width="0.411168"/>
<path d="M52.8328 84.2282C53.6063 83.7417 54.4237 83.3276 55.2742 82.9937L54.7702 86.8006L51.2773 85.3531C51.7693 84.9437 52.2907 84.568 52.8325 84.2284L52.8328 84.2282Z" fill="black" stroke="black" stroke-width="0.411168"/>
<path d="M52.611 83.8787L52.6107 83.8789C51.9942 84.2654 51.406 84.6989 50.8509 85.1716L44.0978 82.3788L43.9508 82.1382L43.8823 81.9636C44.5667 80.3511 46.0064 78.1357 48.1025 76.5934C50.2026 75.0481 52.9575 74.1796 56.2917 75.2633L55.3324 82.5286C54.3812 82.8854 53.4722 83.3407 52.611 83.8787Z" fill="white" stroke="black" stroke-width="0.411167"/>
<path d="M21.2986 14.6924L6.71256 17.6774L0.897696 8.15555L7.04761 3.50728L12.8029 0.531402C12.8291 0.517873 12.8613 0.526551 12.877 0.551386L15.3196 4.40592L21.2986 14.6924Z" fill="#465173" stroke="black" stroke-width="0.411167"/>
<path d="M12.8313 0.390682C12.8313 0.390667 12.8313 0.391134 12.8311 0.392133L12.8313 0.390682ZM12.4471 0.602034C12.5851 0.554239 12.6946 0.523892 12.7766 0.508531C12.7272 0.5911 12.6477 0.69925 12.5359 0.831512C12.2818 1.13214 11.884 1.53016 11.3694 1.98852C10.3414 2.90411 8.86287 4.04655 7.17427 5.11285C5.48646 6.17864 3.88804 6.96372 2.68844 7.43978C2.08778 7.67816 1.59221 7.83702 1.23818 7.91572C1.08319 7.95017 0.962127 7.96769 0.874548 7.97165C0.925613 7.90284 1.00492 7.8141 1.11525 7.70573C1.37991 7.44579 1.79218 7.10261 2.32284 6.69862C3.38229 5.89208 4.89367 4.85821 6.58831 3.7881C8.28221 2.71846 9.85633 1.81953 11.0311 1.23075C11.6195 0.935829 12.1021 0.721559 12.4471 0.602034Z" fill="#465173" stroke="black" stroke-width="0.3935"/>
<path d="M47.283 81.0642C47.2571 81.1529 47.2373 81.2295 47.2223 81.2921C47.1789 81.2895 47.1286 81.2871 47.0721 81.2854C46.8619 81.2792 46.5653 81.2826 46.2166 81.3207C45.5707 81.3913 44.7375 81.582 43.9431 82.0593L3.95631 13.1612C4.05762 13.2011 4.16407 13.2352 4.27496 13.2638C4.81112 13.402 5.46652 13.4157 6.19231 13.3208C7.64486 13.131 9.4213 12.5007 11.1849 11.4827L11.185 11.4827C12.4305 10.7625 13.5098 9.94047 14.3487 9.11106C15.1156 8.35278 15.689 7.58092 16.0003 6.86768C16.1199 6.59367 16.2029 6.32295 16.2413 6.06219L56.2276 74.9572C55.6692 75.3338 55.1871 75.958 54.8417 76.4881C54.6483 76.7849 54.4925 77.0604 54.3852 77.2617C54.3604 77.308 54.3382 77.3505 54.3187 77.3885C54.2684 77.3605 54.2093 77.3292 54.142 77.2962C53.9047 77.1798 53.5638 77.0408 53.147 76.9493C52.3103 76.7655 51.1691 76.774 49.9594 77.5333C48.7645 78.2833 48.071 79.2674 47.6767 80.0625C47.4795 80.46 47.3567 80.8112 47.283 81.0642Z" fill="#E74F4F" stroke="black" stroke-width="0.411168"/>
</svg>
